HIERARCHY
ROOT hip
{
  OFFSET 0 0 0
  CHANNELS 6 Xposition Yposition Zposition Zrotation Yrotation Xrotation
  JOINT abdomen
  {
    OFFSET 0 20.6881 -0.73152
    CHANNELS 3 Zrotation Xrotation Yrotation
    JOINT chest
    {
      OFFSET 0 11.7043 -0.48768
      CHANNELS 3 Zrotation Xrotation Yrotation
      JOINT neck
      {
        OFFSET 0 22.1894 -2.19456
        CHANNELS 3 Zrotation Xrotation Yrotation
        JOINT head
        {
          OFFSET -0.24384 7.07133 1.2192
          CHANNELS 3 Zrotation Xrotation Yrotation
          JOINT leftEye
          {
            OFFSET 4.14528 8.04674 8.04672
            CHANNELS 3 Zrotation Xrotation Yrotation
            End Site
            {
              OFFSET 1 0 0
            }
          }
          JOINT rightEye
          {
            OFFSET -3.6576 8.04674 8.04672
            CHANNELS 3 Zrotation Xrotation Yrotation
            End Site
            {
              OFFSET 1 0 0
            }
          }
        }
      }
      JOINT rCollar
      {
        OFFSET -2.68224 19.2634 -4.8768
        CHANNELS 3 Zrotation Xrotation Yrotation
        JOINT rShldr
        {
          OFFSET -8.77824 -1.95073 1.46304
          CHANNELS 3 Zrotation Xrotation Yrotation
          JOINT rForeArm
          {
            OFFSET -28.1742 -1.7115 0.48768
            CHANNELS 3 Zrotation Xrotation Yrotation
            JOINT rHand
            {
              OFFSET -22.5879 0.773209 7.07136
              CHANNELS 3 Zrotation Xrotation Yrotation
              JOINT rThumb1
              {
                OFFSET -1.2192 -0.487915 3.41376
                CHANNELS 3 Zrotation Xrotation Yrotation
                JOINT rThumb2
                {
                  OFFSET -3.37035 -0.52449 3.41376
                  CHANNELS 3 Zrotation Xrotation Yrotation
                  End Site
                  {
                    OFFSET -1.78271 -1.18214 1.43049
                  }
                }
              }
              JOINT rIndex1
              {
                OFFSET -7.75947 0.938293 5.60832
                CHANNELS 3 Zrotation Xrotation Yrotation
                JOINT rIndex2
                {
                  OFFSET -2.54057 -0.884171 1.56538
                  CHANNELS 3 Zrotation Xrotation Yrotation
                  End Site
                  {
                    OFFSET -1.62519 -0.234802 1.16502
                  }
                }
              }
              JOINT rMid1
              {
                OFFSET -8.24714 1.18213 3.41376
                CHANNELS 3 Zrotation Xrotation Yrotation
                JOINT rMid2
                {
                  OFFSET -3.10165 -0.590103 1.0647
                  CHANNELS 3 Zrotation Xrotation Yrotation
                  End Site
                  {
                    OFFSET -2.48547 -0.328903 0.83742
                  }
                }
              }
              JOINT rRing1
              {
                OFFSET -8.82822 0.546677 1.51678
                CHANNELS 3 Zrotation Xrotation Yrotation
                JOINT rRing2
                {
                  OFFSET -2.60934 -0.819778 -0.0198488
                  CHANNELS 3 Zrotation Xrotation Yrotation
                  End Site
                  {
                    OFFSET -2.33842 -0.294052 0.168128
                  }
                }
              }
              JOINT rPinky1
              {
                OFFSET -8.27202 -0.0477905 -0.4584
                CHANNELS 3 Zrotation Xrotation Yrotation
                JOINT rPinky2
                {
                  OFFSET -1.82734 -0.647385 -0.700984
                  CHANNELS 3 Zrotation Xrotation Yrotation
                  End Site
                  {
                    OFFSET -1.69225 -0.51767 -0.607171
                  }
                }
              }
            }
          }
        }
      }
      JOINT lCollar
      {
        OFFSET 2.68224 19.2634 -4.8768
        CHANNELS 3 Zrotation Xrotation Yrotation
        JOINT lShldr
        {
          OFFSET 8.77824 -1.95073 1.46304
          CHANNELS 3 Zrotation Xrotation Yrotation
          JOINT lForeArm
          {
            OFFSET 28.1742 -1.7115 0.48768
            CHANNELS 3 Zrotation Xrotation Yrotation
            JOINT lHand
            {
              OFFSET 22.5879 0.773209 7.07136
              CHANNELS 3 Zrotation Xrotation Yrotation
              JOINT lThumb1
              {
                OFFSET 1.2192 -0.487915 3.41376
                CHANNELS 3 Zrotation Xrotation Yrotation
                JOINT lThumb2
                {
                  OFFSET 3.37035 -0.52449 3.41376
                  CHANNELS 3 Zrotation Xrotation Yrotation
                  End Site
                  {
                    OFFSET 1.78271 -1.18214 1.43049
                  }
                }
              }
              JOINT lIndex1
              {
                OFFSET 7.75947 0.938293 5.60832
                CHANNELS 3 Zrotation Xrotation Yrotation
                JOINT lIndex2
                {
                  OFFSET 2.54057 -0.884171 1.56538
                  CHANNELS 3 Zrotation Xrotation Yrotation
                  End Site
                  {
                    OFFSET 1.62519 -0.234802 1.16502
                  }
                }
              }
              JOINT lMid1
              {
                OFFSET 8.24714 1.18213 3.41376
                CHANNELS 3 Zrotation Xrotation Yrotation
                JOINT lMid2
                {
                  OFFSET 3.10165 -0.590103 1.0647
                  CHANNELS 3 Zrotation Xrotation Yrotation
                  End Site
                  {
                    OFFSET 2.48547 -0.328903 0.83742
                  }
                }
              }
              JOINT lRing1
              {
                OFFSET 8.82822 0.546677 1.51678
                CHANNELS 3 Zrotation Xrotation Yrotation
                JOINT lRing2
                {
                  OFFSET 2.60934 -0.819778 -0.0198488
                  CHANNELS 3 Zrotation Xrotation Yrotation
                  End Site
                  {
                    OFFSET 2.33842 -0.294052 0.168128
                  }
                }
              }
              JOINT lPinky1
              {
                OFFSET 8.27202 -0.0477905 -0.4584
                CHANNELS 3 Zrotation Xrotation Yrotation
                JOINT lPinky2
                {
                  OFFSET 1.82734 -0.647385 -0.700984
                  CHANNELS 3 Zrotation Xrotation Yrotation
                  End Site
                  {
                    OFFSET 1.69225 -0.51767 -0.607171
                  }
                }
              }
            }
          }
        }
      }
    }
  }
  JOINT rButtock
  {
    OFFSET -8.77824 4.35084 1.2192
    CHANNELS 3 Zrotation Xrotation Yrotation
    JOINT rThigh
    {
      OFFSET 0 -1.70687 -2.19456
      CHANNELS 3 Zrotation Xrotation Yrotation
      JOINT rShin
      {
        OFFSET 0 -36.8199 0.73152
        CHANNELS 3 Zrotation Xrotation Yrotation
        JOINT rFoot
        {
          OFFSET 0.73152 -45.1104 -5.12064
          CHANNELS 3 Zrotation Xrotation Yrotation
          End Site
          {
            OFFSET -1.1221 -3.69964 12.103
          }
        }
      }
    }
  }
  JOINT lButtock
  {
    OFFSET 8.77824 4.35084 1.2192
    CHANNELS 3 Zrotation Xrotation Yrotation
    JOINT lThigh
    {
      OFFSET 0 -1.70687 -2.19456
      CHANNELS 3 Zrotation Xrotation Yrotation
      JOINT lShin
      {
        OFFSET 0 -36.8199 0.73152
        CHANNELS 3 Zrotation Xrotation Yrotation
        JOINT lFoot
        {
          OFFSET -0.73152 -45.1104 -5.12064
          CHANNELS 3 Zrotation Xrotation Yrotation
          End Site
          {
            OFFSET 1.1221 -3.69964 12.103
          }
        }
      }
    }
  }
}
MOTION
Frames:	9
Frame Time:	0.00833333
200.097 85.1085 -60.5761 180.723 67.3738 -152.712 -5.97869 -18.5883 3.7811 2.86663 2.26478 1.4742 -6.14321 19.8134 -0.322009 20.155 -58.0023 11.6287 -0.0 0.0 0.0 -0.0 0.0 0.0 9.08794e-14 3.14827e-13 -3.85244e-13 16.9778 -31.4024 76.9395 -24.2287 -19.5258 50.3371 -0.00260609 -1.45699 -0.20481 5.25356e-09 -6.61111e-09 -3.46557e-09 9.09151e-09 -1.14275e-08 -5.98374e-09 5.25356e-09 -6.61112e-09 -3.46557e-09 7.73091 5.47488 0.417314 5.25355e-09 -6.61111e-09 -3.46556e-09 2.90554 0.965183 0.102902 5.25357e-09 -6.61111e-09 -3.46557e-09 10.2786 0.731801 0.0259123 5.25355e-09 -6.61111e-09 -3.46556e-09 2.22167 -0.733487 -0.20892 9.06169e-14 3.14841e-13 -3.85421e-13 -4.38228 -38.2565 -80.043 19.8663 -12.8473 -38.3585 0.382063 17.2803 -2.50597 3.86844e-09 2.70263e-09 2.3585e-09 6.71437e-09 4.67935e-09 4.02508e-09 3.86844e-09 2.70263e-09 2.35851e-09 -7.73091 5.47488 -0.417314 3.86844e-09 2.70263e-09 2.35849e-09 -2.90554 0.965183 -0.102902 3.86844e-09 2.70263e-09 2.3585e-09 -10.2786 0.731801 -0.0259123 3.86845e-09 2.70263e-09 2.35848e-09 -2.22167 -0.733487 0.20892 -2.03217e-16 0.0 -3.88251e-19 3.43591 -14.0981 4.74871 -0.0783007 19.55 0.247395 -0.0795805 9.37264 -5.18695 2.03217e-16 0.0 3.88251e-19 -2.43733 -46.248 -11.1662 0.13937 23.9599 -0.147489 -4.11423 -11.5241 -14.9258
200.205 85.0442 -60.4332 180.931 67.2732 -152.291 -5.92584 -18.634 3.74716 2.93915 2.33159 1.45841 -6.28154 19.671 -0.290242 20.7859 -58.1925 12.1666 -0.0 0.0 0.0 -0.0 0.0 0.0 4.57159e-14 5.98711e-13 -1.83978e-13 17.2628 -31.6847 77.2184 -24.2349 -19.5376 50.3578 -0.00342368 -1.68066 -0.236267 3.77584e-09 -5.98446e-09 -4.26125e-09 6.5408e-09 -1.03514e-08 -7.36194e-09 3.77584e-09 -5.98446e-09 -4.26125e-09 7.73091 5.47488 0.417314 3.77584e-09 -5.98445e-09 -4.26124e-09 2.90554 0.965183 0.102902 3.77585e-09 -5.98446e-09 -4.26125e-09 10.2786 0.731801 0.0259123 3.77584e-09 -5.98445e-09 -4.26124e-09 2.22167 -0.733487 -0.20892 4.55292e-14 5.98717e-13 -1.84196e-13 -4.62178 -38.4889 -80.2648 19.8191 -12.7887 -38.2449 0.394891 17.5589 -2.549 1.80557e-09 1.20451e-09 1.46353e-09 3.13674e-09 2.08868e-09 2.50438e-09 1.80556e-09 1.20451e-09 1.46354e-09 -7.73091 5.47488 -0.417314 1.80557e-09 1.20451e-09 1.46352e-09 -2.90554 0.965183 -0.102902 1.80556e-09 1.20451e-09 1.46353e-09 -10.2786 0.731801 -0.0259123 1.80557e-09 1.20451e-09 1.46352e-09 -2.22167 -0.733487 0.20892 -2.03217e-16 0.0 -3.88251e-19 3.71611 -14.2298 5.1784 -0.0777028 19.4751 0.243919 -0.035772 9.55074 -5.49888 2.03217e-16 0.0 3.88251e-19 -2.29214 -46.5666 -11.1496 0.140935 24.1278 -0.152239 -4.09181 -11.4534 -14.9049
200.116 85.055 -60.4268 181.367 67.1852 -151.757 -5.85903 -18.6816 3.71508 3.00953 2.39076 1.44295 -6.40741 19.5008 -0.263119 21.338 -58.3365 12.6406 -0.0 0.0 0.0 -0.0 0.0 0.0 -1.58773e-15 8.61736e-13 5.12806e-14 17.5283 -31.9699 77.5009 -24.2364 -19.5405 50.363 -0.00448569 -1.90409 -0.267701 1.90439e-09 -4.79938e-09 -4.66877e-09 3.30834e-09 -8.3096e-09 -8.06947e-09 1.9044e-09 -4.79938e-09 -4.66877e-09 7.73091 5.47488 0.417314 1.90439e-09 -4.79937e-09 -4.66876e-09 2.90554 0.965183 0.102902 1.90439e-09 -4.79937e-09 -4.66876e-09 10.2786 0.731801 0.0259123 1.90438e-09 -4.79937e-09 -4.66875e-09 2.22167 -0.733487 -0.20892 -1.6923e-15 8.61733e-13 5.10197e-14 -4.85047 -38.7277 -80.4791 19.7662 -12.7232 -38.1178 0.40812 17.8374 -2.5922 -5.08486e-10 -4.67648e-10 4.24655e-10 -8.76598e-10 -8.03398e-10 7.38653e-10 -5.0849e-10 -4.6765e-10 4.24663e-10 -7.73091 5.47488 -0.417314 -5.08483e-10 -4.67646e-10 4.24644e-10 -2.90554 0.965183 -0.102902 -5.08489e-10 -4.67645e-10 4.24647e-10 -10.2786 0.731801 -0.0259123 -5.08483e-10 -4.67645e-10 4.24635e-10 -2.22167 -0.733487 0.20892 -2.03217e-16 0.0 -3.88251e-19 4.00464 -14.3624 5.60875 -0.0770806 19.3969 0.240455 0.00988537 9.73029 -5.8071 2.03217e-16 0.0 3.88251e-19 -2.13784 -46.891 -11.1336 0.142556 24.3007 -0.157205 -4.06706 -11.3708 -14.8874
200.167 85.0579 -60.3369 181.4 67.2142 -151.592 -5.78847 -18.6729 3.6865 3.04358 2.38519 1.43031 -6.4152 19.3526 -0.256519 21.4985 -58.422 12.8185 -0.0 0.0 0.0 -0.0 0.0 0.0 -3.4165e-14 9.58147e-13 2.3228e-13 17.7103 -32.2041 77.7627 -24.2197 -19.5085 50.3074 -0.00535275 -2.05678 -0.28919 2.32422e-10 -3.24035e-09 -4.25788e-09 4.17614e-10 -5.61766e-09 -7.36145e-09 2.32431e-10 -3.24036e-09 -4.25788e-09 7.73091 5.47488 0.417314 2.32421e-10 -3.24035e-09 -4.25787e-09 2.90554 0.965183 0.102902 2.32427e-10 -3.24035e-09 -4.25787e-09 10.2786 0.731801 0.0259123 2.32418e-10 -3.24035e-09 -4.25785e-09 2.22167 -0.733487 -0.20892 -3.42191e-14 9.58137e-13 2.31982e-13 -5.02798 -38.9461 -80.6316 19.7084 -12.6521 -37.9788 0.418731 18.0551 -2.62611 -2.18143e-09 -1.65852e-09 -3.99599e-10 -3.77854e-09 -2.86381e-09 -6.63541e-10 -2.18143e-09 -1.65852e-09 -3.99589e-10 -7.73091 5.47488 -0.417314 -2.18143e-09 -1.65852e-09 -3.99608e-10 -2.90554 0.965183 -0.102902 -2.18143e-09 -1.65852e-09 -3.99606e-10 -10.2786 0.731801 -0.0259123 -2.18143e-09 -1.65852e-09 -3.99618e-10 -2.22167 -0.733487 0.20892 -2.03217e-16 0.0 -3.88251e-19 4.20957 -14.4801 5.86633 -0.0765489 19.3471 0.238985 0.0356771 9.83737 -5.96836 2.03217e-16 0.0 3.88251e-19 -2.0236 -47.158 -11.1302 0.14398 24.4545 -0.16171 -4.03839 -11.2799 -14.8648
200.157 85.0581 -60.3068 181.503 67.2279 -151.437 -5.67461 -18.5657 3.66562 3.00743 2.2634 1.42149 -6.22779 19.2455 -0.28351 21.0233 -58.4074 12.5103 -0.0 0.0 0.0 -0.0 0.0 0.0 -5.26477e-14 7.72083e-13 3.45884e-13 17.7559 -32.3438 77.9577 -24.183 -19.4382 50.1898 -0.00566577 -2.10701 -0.29626 -1.31555e-09 -8.53324e-10 -2.4216e-09 -2.26406e-09 -1.48852e-09 -4.18836e-09 -1.31554e-09 -8.53334e-10 -2.4216e-09 7.73091 5.47488 0.417314 -1.31556e-09 -8.53322e-10 -2.42159e-09 2.90554 0.965183 0.102902 -1.31555e-09 -8.5332e-10 -2.42159e-09 10.2786 0.731801 0.0259123 -1.31556e-09 -8.53319e-10 -2.42157e-09 2.22167 -0.733487 -0.20892 -5.26992e-14 7.7207e-13 3.45549e-13 -5.03718 -39.1147 -80.6058 19.6581 -12.5897 -37.8607 0.422595 18.127 -2.63743 -2.98228e-09 -2.19234e-09 -9.53394e-10 -5.16865e-09 -3.78911e-09 -1.60823e-09 -2.98228e-09 -2.19235e-09 -9.53383e-10 -7.73091 5.47488 -0.417314 -2.98228e-09 -2.19234e-09 -9.534e-10 -2.90554 0.965183 -0.102902 -2.98228e-09 -2.19234e-09 -9.53399e-10 -10.2786 0.731801 -0.0259123 -2.98228e-09 -2.19234e-09 -9.5341e-10 -2.22167 -0.733487 0.20892 -2.03217e-16 0.0 -3.88251e-19 4.32359 -14.554 5.89613 -0.0760186 19.323 0.240045 0.0341262 9.86791 -5.92573 2.03217e-16 0.0 3.88251e-19 -1.9468 -47.3419 -11.1511 0.145265 24.5978 -0.165941 -4.00438 -11.1718 -14.8393
200.136 85.0564 -60.3083 181.579 67.2461 -151.293 -5.52599 -18.3999 3.65035 2.92753 2.06793 1.41507 -5.91805 19.151 -0.332606 20.1329 -58.3104 11.8824 -0.0 0.0 0.0 -0.0 0.0 0.0 -6.43215e-14 4.06946e-13 4.35696e-13 17.7093 -32.4286 78.1085 -24.1325 -19.3417 50.0308 -0.00560549 -2.09669 -0.294808 -2.97803e-09 2.29235e-09 4.46531e-10 -5.14734e-09 3.95572e-09 7.68921e-10 -2.97802e-09 2.29234e-09 4.46517e-10 7.73091 5.47488 0.417314 -2.97803e-09 2.29235e-09 4.46528e-10 2.90554 0.965183 0.102902 -2.97802e-09 2.29235e-09 4.46538e-10 10.2786 0.731801 0.0259123 -2.97803e-09 2.29235e-09 4.46554e-10 2.22167 -0.733487 -0.20892 -6.43957e-14 4.06929e-13 4.35323e-13 -4.93282 -39.2555 -80.4611 19.611 -12.5309 -37.7519 0.42216 18.1084 -2.63469 -3.38461e-09 -2.41896e-09 -1.41469e-09 -5.86802e-09 -4.18403e-09 -2.39722e-09 -3.38461e-09 -2.41896e-09 -1.41468e-09 -7.73091 5.47488 -0.417314 -3.3846e-09 -2.41896e-09 -1.41469e-09 -2.90554 0.965183 -0.102902 -3.38461e-09 -2.41896e-09 -1.41469e-09 -10.2786 0.731801 -0.0259123 -3.3846e-09 -2.41896e-09 -1.4147e-09 -2.22167 -0.733487 0.20892 -2.03217e-16 0.0 -3.88251e-19 4.38866 -14.6014 5.79323 -0.0754631 19.3116 0.242575 0.0164813 9.85629 -5.76168 2.03217e-16 0.0 3.88251e-19 -1.88675 -47.4793 -11.1871 0.146502 24.7385 -0.170137 -3.96624 -11.0478 -14.8141
200.108 85.0518 -60.3161 181.673 67.2388 -151.113 -5.42497 -18.2407 3.63295 2.86013 1.88269 1.40984 -5.6054 19.0474 -0.38283 19.2069 -58.2114 11.234 -0.0 0.0 0.0 -0.0 0.0 0.0 -6.23004e-14 4.58696e-14 4.98567e-13 17.652 -32.5285 78.2943 -24.0659 -19.2156 49.8191 -0.00541592 -2.06575 -0.290453 -4.40627e-09 5.22704e-09 3.27595e-09 -7.62571e-09 9.03578e-09 5.65959e-09 -4.40626e-09 5.22703e-09 3.27593e-09 7.73091 5.47488 0.417314 -4.40627e-09 5.22705e-09 3.27594e-09 2.90554 0.965183 0.102902 -4.40627e-09 5.22705e-09 3.27595e-09 10.2786 0.731801 0.0259123 -4.40628e-09 5.22705e-09 3.27597e-09 2.22167 -0.733487 -0.20892 -6.24037e-14 4.58509e-14 4.98169e-13 -4.93343 -39.4201 -80.4092 19.5418 -12.4467 -37.5873 0.424166 18.1493 -2.64108 -3.55294e-09 -2.47146e-09 -1.77565e-09 -6.16179e-09 -4.27778e-09 -3.01558e-09 -3.55294e-09 -2.47146e-09 -1.77563e-09 -7.73091 5.47488 -0.417314 -3.55294e-09 -2.47146e-09 -1.77564e-09 -2.90554 0.965183 -0.102902 -3.55294e-09 -2.47146e-09 -1.77564e-09 -10.2786 0.731801 -0.0259123 -3.55293e-09 -2.47146e-09 -1.77565e-09 -2.22167 -0.733487 0.20892 -2.03217e-16 0.0 -3.88251e-19 4.38553 -14.6756 5.60904 -0.075086 19.3284 0.246156 -0.011962 9.78652 -5.54183 2.03217e-16 0.0 3.88251e-19 -1.86565 -47.6006 -11.2189 0.147458 24.8513 -0.173681 -3.9264 -10.9273 -14.7817
200.024 85.0426 -60.284 181.954 67.208 -150.82 -5.45393 -18.1534 3.60562 2.86152 1.79159 1.40455 -5.4092 18.9134 -0.413233 18.615 -58.196 10.8563 -0.0 0.0 0.0 -0.0 0.0 0.0 -3.96986e-14 -1.28008e-13 5.31351e-13 17.6677 -32.7118 78.5975 -23.9804 -19.0562 49.5434 -0.00533898 -2.0541 -0.288813 -5.25155e-09 6.98115e-09 4.99611e-09 -9.09264e-09 1.20724e-08 8.63286e-09 -5.25154e-09 6.98113e-09 4.99609e-09 7.73091 5.47488 0.417314 -5.25155e-09 6.98115e-09 4.9961e-09 2.90554 0.965183 0.102902 -5.25155e-09 6.98115e-09 4.99611e-09 10.2786 0.731801 0.0259123 -5.25156e-09 6.98115e-09 4.99613e-09 2.22167 -0.733487 -0.20892 -3.98178e-14 -1.28026e-13 5.30954e-13 -5.26087 -39.6607 -80.6671 19.4244 -12.3072 -37.3022 0.435582 18.4 -2.67989 -3.65181e-09 -2.48293e-09 -2.0284e-09 -6.3351e-09 -4.29952e-09 -3.44841e-09 -3.65181e-09 -2.48293e-09 -2.02839e-09 -7.73091 5.47488 -0.417314 -3.65181e-09 -2.48293e-09 -2.0284e-09 -2.90554 0.965183 -0.102902 -3.65181e-09 -2.48293e-09 -2.0284e-09 -10.2786 0.731801 -0.0259123 -3.6518e-09 -2.48293e-09 -2.02841e-09 -2.22167 -0.733487 0.20892 -2.03217e-16 0.0 -3.88251e-19 4.29449 -14.8303 5.39492 -0.0750977 19.3892 0.250372 -0.0455828 9.64271 -5.33183 2.03217e-16 0.0 3.88251e-19 -1.90552 -47.7361 -11.2271 0.147891 24.9111 -0.175957 -3.8873 -10.8297 -14.7348
199.998 85.0366 -60.2142 181.989 67.2828 -150.745 -5.72076 -18.1862 3.56042 2.97821 1.84719 1.40033 -5.37026 18.7309 -0.419119 18.4879 -58.3314 10.8594 -0.0 0.0 0.0 -0.0 0.0 0.0 1.78055e-14 2.94786e-15 5.35525e-13 17.777 -33.0321 79.0692 -23.8592 -18.8337 49.153 -0.0053378 -2.04523 -0.287567 -5.30689e-09 7.02965e-09 5.05612e-09 -9.18826e-09 1.21561e-08 8.73618e-09 -5.30688e-09 7.02964e-09 5.0561e-09 7.73091 5.47488 0.417314 -5.3069e-09 7.02966e-09 5.05611e-09 2.90554 0.965183 0.102902 -5.30689e-09 7.02965e-09 5.05612e-09 10.2786 0.731801 0.0259123 -5.3069e-09 7.02965e-09 5.05613e-09 2.22167 -0.733487 -0.20892 1.76924e-14 2.93494e-15 5.35173e-13 -6.18068 -40.025 -81.5073 19.2161 -12.0636 -36.7981 0.466137 19.0426 -2.78007 -3.73522e-09 -2.48686e-09 -2.21683e-09 -6.48254e-09 -4.30678e-09 -3.77056e-09 -3.73523e-09 -2.48686e-09 -2.21681e-09 -7.73091 5.47488 -0.417314 -3.73522e-09 -2.48686e-09 -2.21682e-09 -2.90554 0.965183 -0.102902 -3.73523e-09 -2.48687e-09 -2.21682e-09 -10.2786 0.731801 -0.0259123 -3.73522e-09 -2.48686e-09 -2.21683e-09 -2.22167 -0.733487 0.20892 -2.03217e-16 0.0 -3.88251e-19 4.04563 -15.1302 5.13855 -0.0758347 19.533 0.255806 -0.0865642 9.37757 -5.14675 2.03217e-16 0.0 3.88251e-19 -2.06223 -47.9048 -11.193 0.147478 24.8858 -0.176142 -3.85016 -10.765 -14.6712
